<svg enable-background="new 0 0 32 32" viewBox="0 0 32 32" xmlns="http://www.w3.org/2000/svg"><g fill="none" stroke="#000" stroke-miterlimit="10" stroke-width="2"><path d="m4 22.583 5.417 5.417"/><path d="m22 4h6v6"/><path d="m28 4-5.768 5.768"/><path d="m4 28 5.454-5.454"/></g><path d="m15.86 11.255c-.114.087-.232.167-.334.27-.433.433-.723.964-.883 1.538 1.09.14 2.102.612 2.892 1.402.944.944 1.465 2.2 1.465 3.535s-.521 2.591-1.465 3.536-2.2 1.464-3.535 1.464-2.591-.52-3.535-1.464-1.465-2.201-1.465-3.536c0-.865.239-1.686.65-2.421-.097-.516-.15-1.043-.15-1.579 0-.498.05-.987.133-1.467-.201.162-.397.332-.582.517-1.322 1.323-2.051 3.08-2.051 4.95s.729 3.627 2.051 4.95 3.079 2.05 4.949 2.05 3.627-.728 4.949-2.05 2.051-3.08 2.051-4.95-.729-3.627-2.051-4.95c-.871-.871-1.933-1.478-3.089-1.795z"/><path d="m22.949 9.05c-1.322-1.322-3.079-2.05-4.949-2.05s-3.627.728-4.949 2.05-2.051 3.08-2.051 4.95.729 3.627 2.051 4.95c.871.871 1.933 1.478 3.089 1.795.114-.087.232-.167.334-.27.433-.433.723-.964.883-1.538-1.09-.14-2.102-.612-2.892-1.402-.944-.944-1.465-2.2-1.465-3.535s.521-2.591 1.465-3.536 2.2-1.464 3.535-1.464 2.591.52 3.535 1.464 1.465 2.201 1.465 3.536c0 .865-.239 1.686-.65 2.421.096.516.15 1.043.15 1.579 0 .498-.05.987-.133 1.467.201-.162.397-.332.582-.517 1.322-1.323 2.051-3.08 2.051-4.95s-.729-3.627-2.051-4.95z"/></svg>