<svg fill="none" height="24" viewBox="0 0 24 24" width="24" xmlns="http://www.w3.org/2000/svg"><g fill="#1c274c"><path d="m12 22.0003c5.5228 0 10-2.0147 10-4.5 0-1.2666-1.163-2.4111-3.0346-3.2288-1.1421 2.0958-2.8837 3.9023-5.0959 4.8477-1.1891.5082-2.5499.5082-3.739 0-2.21222-.9454-3.95384-2.7519-5.09592-4.8477-1.87163.8177-3.03458 1.9622-3.03458 3.2288 0 2.4853 4.47715 4.5 10 4.5z"/><path clip-rule="evenodd" d="m5 8.51464c0-3.59794 3.13401-6.51464 7-6.51464 3.866 0 7 2.9167 7 6.51464 0 3.56976-2.2342 7.73526-5.7199 9.22496-.8126.3472-1.7476.3472-2.5602 0-3.48574-1.4897-5.7199-5.6552-5.7199-9.22496zm7 2.48536c1.1046 0 2-.8954 2-2 0-1.10457-.8954-2-2-2s-2 .89543-2 2c0 1.1046.8954 2 2 2z" fill-rule="evenodd"/></g></svg>